<svg version="1.2" xmlns="http://www.w3.org/2000/svg" viewBox="0 0 48 48" width="48" height="48"><style>.a{fill:#f06292}</style><path fill-rule="evenodd" class="a" d="m46.9 31.2c-0.1 1.9-1.9 2.7-2.2 2.7-0.2 0.1-0.4 0.1-0.4-0.1 0-0.1 0.1-0.2 0.4-0.4 0.2-0.1 1.1-0.7 1.2-1.8 0.2-1-0.6-3.5-4.6-3.9-1.9-0.3-3.3 0-4.4 0.5 0.2 0.5 0.3 1.1 0.4 1.6 0 1.3-0.9 2.2-1.7 2.9-0.6 0.4-1.1 0.6-1.6 0.8-0.4 0.1-0.9 0.3-1.2 0.2-0.8-0.1-1.2-0.8-0.7-2.4 0.3-0.8 1.1-2 2.5-3.1-0.3-0.6-0.7-1.3-0.9-1.8-0.3-1.2-0.4-1.9-0.4-1.9 0 0-1.1 2.3-2.5 4.3q-0.1 0.2-0.2 0.4c0.2 0.6 0.4 1.3 0.5 2 0 1.3-0.5 2.2-1.4 2.9-0.5 0.3-1 0.6-1.5 0.7-0.2 0.1-0.8 0.3-1.6 0.4-0.5 0-0.9 0-1.2-0.2-0.3-0.2-0.3-0.5-0.2-1 0.2-0.3 1.3-1.6 2.2-2.7q0.4-0.4 0.7-0.8 0-0.1 0-0.1c0 0 0.2-0.2 0.4-0.5-0.3-0.8-0.7-1.5-0.9-2.2-0.4-1.1-0.5-1.8-0.5-1.8 0 0-1.1 2.8-2.2 5.1-0.9 1.7-1.5 2.8-1.8 3.3q0 0 0 0 0 0-0.1 0.2-0.1 0.1-0.1 0.1 0 0 0-0.1c-0.3 0.5-0.9 1.4-1.6 1.4-1.8 0-1.2-3.8-1.2-3.8 0 0-0.5 1.4-1.1 2.6-0.5 1-1 1.8-1.9 1.8-0.3 0-0.8 0-1.1-0.4-0.9-0.8-1.5-2.8-1.4-4.4 0.1-1.3 0.3-2.3 0.6-3-0.5 0.2-1.1 0.6-1.7 0.9q-0.4 0.3-0.9 0.6 0 0 0 0c0.8 1.5 1 4.7-0.7 7.1-1.6 2.5-4.7 4-7.6 3.1-1-0.2-2.5-2.2-1.2-5 1.1-2.4 5.5-4.8 6.7-5.3q0.1-0.1 0.3-0.2c-2.3-2-8.1-4.8-8.9-9-0.3-1.2 0.3-4 3.8-7.3 2.9-2.7 7-4.8 10.7-6.2 6.4-2.2 13-0.9 14.1 3.2 1 3.9-2.5 8.7-6.9 10.4-3.9 1.5-7.1 1.2-8.5 0.8-1.5-0.5-2.4-1.5-2.6-2.1-0.1-0.2-0.2-0.6 0-0.7 0.1-0.1 0.2 0 0.6 0.4 0.3 0.4 1.8 1.5 4.6 1.1 7.2-0.8 11.6-6.4 10.2-9.5-0.9-2.1-6.5-3.1-13.5 0.4-8.6 4.3-9 7.8-9.1 9.1-0.2 3.7 4.5 5.6 7.1 8.4q0 0 0.1 0.1 0.7-0.4 1.4-0.8c1.3-0.7 2.5-1.4 3.1-1.7 0.9-1.3 2.7-2.8 4.1-2.8 2.1 0 1.3 3.1 1.3 3.1 0 0 0.1-0.2 0.1-0.2 0.1 0 0.3-0.4 1-0.1 0.7 0.2 0.5 0.7 0.5 0.7 0 0.1-0.8 2.8-1.1 4.5-0.2 0.9-0.1 1.5 0 1.5 0 0 0.2-0.3 0.3-0.5q0 0 0 0 0 0 0.2-0.5 0.1 0 0.1 0 0 0 0 0 0.2-0.6 0.7-1.6c0.6-1.3 2.8-6.2 3-6.8 0.2-0.5 0.3-1.1 0.4-1.4 0.1-0.2 0.9-0.4 1.8-0.4 0.9 0 1 0.4 1 0.5 0 0.1-0.4 1.2-0.5 2-0.1 0.7 0 1.1 0.1 1.8 0 0.4 0.3 0.9 0.6 1.5 0.9-1.5 2.6-4.5 2.8-5.4 0.1-0.5 0.3-1.1 0.4-1.3 0.1-0.3 0.8-0.4 1.8-0.4 0.9 0 1 0.4 1 0.4 0 0.1-0.4 1.2-0.6 2-0.1 0.8 0 1.1 0.1 1.8 0.1 0.5 0.5 1.3 1 2.1 1.1-0.5 2.5-0.9 4.1-0.9 4.1 0 6.5 2.6 6.4 5.1zm-35.7-0.4q-0.1 0.1-0.2 0.1 0 0-0.1 0.1-0.5 0.3-0.8 0.5c-0.9 0.5-2.1 1.4-3.1 2.3-1.6 1.5-2 3.6-1.1 4.1 0.8 0.5 2.6 0 3.9-1.5 1.4-1.5 2-3.4 1.4-5.6zm9.4-5.1c-0.2-0.4-1-0.1-1.7 0.7-0.5 0.5-1.2 1.8-1.6 2.9-0.7 2.1-0.4 4.3 0.1 4.4 0.6 0.2 1.6-2.7 2-3.8 0.3-0.7 1.4-3.8 1.2-4.2zm8.6 5.5q0-0.1-0.1-0.1-0.4 0.5-0.7 1c-0.4 0.5-1.4 1.5-1.4 1.5 0 0-0.2 0.2-0.1 0.2 0.1 0 0.3 0 0.5-0.1 0.5-0.4 1.8-1.2 1.8-2.5zm6.1-1.4q0-0.3-0.1-0.8c-0.8 0.7-1.2 1.4-1.4 1.8-0.4 1-0.5 1.4-0.3 1.5 0.7-0.3 1.8-0.9 1.8-2.5z"/></svg>