<svg version="1.2" xmlns="http://www.w3.org/2000/svg" viewBox="0 0 48 48" width="48" height="48"><style>.a{fill:#f4511e}</style><path class="a" d="m46 21.7l-19.7-19.7c-0.6-0.6-1.5-1-2.3-1-0.8 0-1.7 0.4-2.3 1l-4.2 4.2 4.9 5c0.5-0.3 1-0.4 1.6-0.4 2.1 0 3.6 1.6 3.6 3.6 0 0.6-0.1 1.1-0.3 1.6l4.8 4.9c0.5-0.3 1-0.4 1.6-0.4 2 0 3.6 1.6 3.6 3.6 0 2.1-1.6 3.7-3.6 3.7-2.1 0-3.6-1.6-3.6-3.7 0-0.6 0.1-1.1 0.3-1.6l-4.8-4.8c-0.1 0-0.3 0.1-0.4 0.1v12.6c1.5 0.5 2.4 1.8 2.4 3.4 0 2.1-1.5 3.6-3.6 3.6-2.1 0-3.6-1.5-3.6-3.6 0-1.6 0.9-2.9 2.4-3.4v-12.7c-1.5-0.5-2.4-1.8-2.4-3.4 0-0.6 0.1-1.1 0.3-1.6l-4.9-4.9-13.8 13.9c-0.6 0.6-1 1.5-1 2.3 0 0.8 0.4 1.7 1 2.3l19.7 19.7c0.6 0.6 1.5 1 2.3 1 0.8 0 1.7-0.4 2.3-1l19.7-19.7c0.6-0.6 1-1.5 1-2.3 0-0.8-0.4-1.7-1-2.3z"/></svg>