<svg version="1.2" xmlns="http://www.w3.org/2000/svg" viewBox="0 0 256 256" width="256" height="256">
    <style>
        .a {
            stroke: #fff;
            paint-order: stroke fill markers;
            stroke-linejoin: round;
            stroke-width: 22
        }
    </style>
    <path fill-rule="evenodd" class="a"
        d="m139.5 11.8c8.9 1 16.8 2.6 24.3 5 42.3 13.7 73.4 50.5 79.8 94.2 0.9 6.4 1 8.3 1 17 0 8.7-0.1 10.6-1 17-3.2 22-12.7 42.7-27.5 59.6-6.9 8-15.7 15.6-23.9 21l-1 0.6-18.4-27.9c-10.2-15.4-30.9-46.8-46.1-69.7-15.1-23-27.7-42-28.1-42.4-1.2-1.3-2-1.5-6.6-1.5-4 0-4.3 0.1-5.3 0.5-0.5 0.3-1.3 0.9-1.6 1.4l-0.8 0.9v45.7l-0.1 45.7 0.5 1q0.5 1 1.5 1.7l1.1 0.7h3.9c3.5 0 4.1-0.1 4.8-0.5 1-0.5 1.5-0.9 2-2 0.5-0.8 0.5-2.1 0.5-35 0.1-18.7 0.2-34.1 0.3-34.1 0.1 0 10.6 15.6 23.5 34.6l23.4 34.6 18.6 25.1c10.3 13.9 18.8 25.4 19 25.5 0.3 0.2-0.1 0.5-2.1 1.5-13.1 6.7-26.4 10.6-42 12.3-3.6 0.4-18.8 0.4-22.4 0-9-1-17-2.7-24.6-5.1-42.3-13.6-73.4-50.4-79.8-94.2-0.9-6.4-1-8.3-1-17 0-8.7 0.1-10.6 1-17 2.7-18.3 9.7-35.6 20.6-50.9 19.7-27.5 50.7-45.3 83.8-48.3 1.5-0.1 3.1-0.3 3.6-0.3 1.9-0.2 16.9 0 19.1 0.3zm23.9 69.7c-3.6 0-3.9 0.1-4.9 0.5-1.1 0.6-1.9 1.6-2.2 2.9-0.2 0.5-0.3 11.4-0.3 30.6v29.8l7.3 11.1 7.2 11.1 0.1-41c0-28.6 0-41.2-0.2-41.8-0.3-1.1-1.2-2.2-2.3-2.7-0.8-0.4-1.3-0.5-4.7-0.5z" />
</svg>