<svg version="1.2" xmlns="http://www.w3.org/2000/svg" viewBox="0 0 35 35" width="35" height="35"><style>.a{fill:#53c1de}</style><path class="a" d="m17 19.8c-1.6 0-2.9-1.3-2.9-2.8 0-1.6 1.3-2.8 2.9-2.8 1.6 0 2.9 1.2 2.9 2.8 0 1.5-1.3 2.8-2.9 2.8z"/><path fill-rule="evenodd" class="a" d="m33.2 17c0 3-4.3 4.6-6.7 5.3 0.6 2.4 1.3 6.8-1.4 8.3-2.7 1.5-6.2-1.3-8-3-1.9 1.7-5.5 4.5-8.2 3-2.7-1.5-1.9-5.8-1.3-8.3-2.5-0.7-6.8-2.3-6.8-5.3 0-3.1 4.3-4.6 6.8-5.3-0.6-2.4-1.4-6.8 1.3-8.3 2.7-1.5 6.3 1.4 8.1 3.1 1.9-1.7 5.4-4.6 8.1-3.1 2.7 1.5 1.9 6 1.3 8.4 2.5 0.7 6.8 2.2 6.8 5.2zm-1.4 0c0-2.3-4-3.4-5.8-3.9q-0.6 1.8-1.6 3.9 1.1 2.1 1.7 4c1.9-0.6 5.7-1.8 5.7-4zm-6.7 5.6q-2 0.4-4.4 0.6-1.3 1.9-2.7 3.4c1.4 1.3 4.4 4 6.4 2.8 2-1.1 1.2-5.1 0.7-6.8zm-9 4q-1.4-1.5-2.8-3.3-2.4-0.2-4.4-0.6c-0.4 1.7-1.3 5.6 0.7 6.7 2 1.2 5.3-1.7 6.5-2.8zm-8.1-5.6q0.6-1.9 1.6-4-1-2-1.6-4c-1.9 0.5-5.8 1.7-5.8 4 0 2.2 4 3.5 5.8 4zm1-9.6q2-0.4 4.3-0.6 1.3-1.9 2.7-3.3c-1.3-1.3-4.4-4-6.4-2.9-2.1 1.1-1.1 4.9-0.6 6.8zm14.6 4q0.7-1.4 1.1-2.7-1.4-0.3-3-0.5 1.1 1.6 1.9 3.2zm-8.5-4.8q1.9 0 3.8 0-0.9-1.2-1.9-2.2-1 1-1.9 2.2zm-2.8 1.6q-1.6 0.2-3 0.5 0.5 1.3 1.1 2.7 0.8-1.6 1.9-3.2zm-1.9 6.4q-0.7 1.4-1.1 2.8 1.4 0.3 3 0.4-1-1.6-1.9-3.2zm8.6 4.8q-2 0-3.9 0 1 1.2 2 2.2 0.9-1 1.9-2.2zm2.7-1.6q1.6-0.2 3-0.5-0.4-1.3-1-2.8-0.9 1.7-2 3.3zm1.2-4.8q-1.3-2.6-2.9-5-3-0.2-6 0-1.6 2.4-2.9 5 1.3 2.6 3 5 2.9 0.2 5.9 0 1.6-2.4 2.9-5zm-4.9-9.5q1.4 1.4 2.7 3.3 2.3 0.2 4.4 0.6c0.4-1.7 1.3-5.7-0.7-6.9-2-1.1-5.1 1.7-6.4 3z"/></svg>